<svg xmlns="http://www.w3.org/2000/svg" width="3873" height="3873" viewBox="0 0 3873 3873" version="1.1">
	<path d="M 2221 1204.115 C 2015.361 1217.738, 1850.615 1332.967, 1731.485 1546.500 C 1693.296 1614.951, 1657.829 1701.680, 1633.544 1786 C 1630.455 1796.725, 1627.718 1806.196, 1627.461 1807.048 C 1627.154 1808.065, 1630.154 1811.311, 1636.215 1816.521 C 1699.505 1870.916, 1757.612 1942.821, 1804.068 2024.228 C 1861.423 2124.735, 1905.877 2247.612, 1932.053 2378 C 1934.317 2389.275, 1936.301 2398.633, 1936.464 2398.796 C 1936.626 2398.959, 1937.070 2396.934, 1937.451 2394.296 C 1938.795 2384.980, 1947.180 2346.195, 1953.059 2322.099 C 1997.836 2138.564, 2075.150 1984.668, 2179.176 1872 L 2191.641 1858.500 2192.820 1827 C 2194.469 1782.980, 2198.090 1750.298, 2205.119 1716 C 2219.979 1643.485, 2247.186 1583.039, 2288.388 1531 C 2300.411 1515.814, 2330.517 1485.569, 2345.388 1473.738 C 2418.911 1415.240, 2515.877 1380.059, 2632.500 1369.567 C 2652.419 1367.776, 2688.402 1366.023, 2705.550 1366.010 L 2717.599 1366 2719.874 1358.250 C 2721.126 1353.987, 2723.941 1346.675, 2726.131 1342 L 2730.112 1333.500 2727.914 1332.034 C 2726.705 1331.227, 2714.867 1325.318, 2701.608 1318.901 C 2559.082 1249.933, 2427.632 1211.808, 2305.517 1204.019 C 2287.114 1202.846, 2239.347 1202.900, 2221 1204.115 M 2821.539 1311.044 C 2788.300 1316.268, 2761.800 1340.680, 2753.986 1373.274 C 2751.583 1383.297, 2751.349 1399.775, 2753.466 1409.840 C 2759.732 1439.627, 2783.018 1464.083, 2812.864 1472.223 C 2823.682 1475.173, 2844.318 1475.173, 2855.136 1472.223 C 2879.766 1465.505, 2901.074 1446.769, 2910.305 1423.712 C 2917.793 1405.006, 2917.862 1379.926, 2910.475 1361.745 C 2900.868 1338.104, 2879.330 1319.097, 2855.130 1312.904 C 2846.171 1310.612, 2829.988 1309.716, 2821.539 1311.044 M 1110 1685.597 C 1106.975 1685.797, 1096.400 1686.442, 1086.500 1687.032 C 989.437 1692.811, 876.603 1714.837, 760.500 1750.668 C 750.600 1753.723, 742.412 1756.298, 742.305 1756.389 C 742.198 1756.481, 742.523 1758.344, 743.027 1760.528 C 746.004 1773.433, 746.160 1790.182, 743.457 1806.656 L 742.775 1810.811 748.637 1811.983 C 779.782 1818.210, 832.191 1832.641, 872 1845.952 C 1037.445 1901.272, 1171.002 1990.292, 1265.902 2108.500 C 1354.512 2218.872, 1408.837 2352.529, 1429.469 2510.927 C 1430.861 2521.612, 1432 2531.850, 1432 2533.677 L 1432 2537 1674 2537 L 1916 2537 1916 2533.977 C 1916 2524.140, 1909.907 2473.263, 1904.925 2441.500 C 1865.197 2188.204, 1761.710 1975.349, 1616.258 1847.762 C 1506.623 1751.593, 1377.130 1699.825, 1214 1686.951 C 1200.849 1685.913, 1120.986 1684.874, 1110 1685.597 M 2683 1685.601 C 2679.975 1685.802, 2670.075 1686.449, 2661 1687.039 C 2364.420 1706.313, 2150.928 1876.756, 2033.531 2187.984 C 1996.005 2287.467, 1966.730 2415.422, 1958.026 2518 C 1957.443 2524.875, 1956.776 2531.963, 1956.546 2533.750 L 1956.126 2537 2198.063 2537 C 2331.128 2537, 2440 2536.850, 2440 2536.668 C 2440 2536.485, 2441.140 2527.147, 2442.533 2515.918 C 2462.705 2353.331, 2519.209 2215.054, 2611.467 2102.500 C 2637.845 2070.319, 2674.961 2032.973, 2708.500 2004.867 C 2812.347 1917.841, 2950.693 1851.969, 3104 1816.553 L 3126.500 1811.356 3128.101 1800.428 C 3129.962 1787.733, 3131.806 1780.889, 3136.660 1768.667 C 3138.589 1763.809, 3140.017 1759.703, 3139.834 1759.543 C 3139.650 1759.383, 3128.475 1755.839, 3115 1751.668 C 2997.344 1715.248, 2893.306 1694.628, 2788.500 1686.957 C 2773.937 1685.892, 2694.073 1684.864, 2683 1685.601 M 614.500 1703.023 C 581.940 1707.957, 555.264 1731.837, 546.383 1764 C 543.619 1774.010, 543.828 1795.976, 546.786 1806.299 C 558.615 1847.584, 599.160 1873.097, 641 1865.583 C 667.353 1860.851, 688.903 1844.175, 700.553 1819.500 C 706.332 1807.259, 708.289 1798.196, 708.216 1784 C 708.119 1765.045, 702.678 1749.088, 691.191 1734.066 C 680.853 1720.546, 662.599 1708.657, 646 1704.631 C 637.760 1702.632, 622.289 1701.843, 614.500 1703.023 M 3226 1735.063 C 3187.443 1745.101, 3161.653 1780.799, 3164.335 1820.419 C 3166.870 1857.866, 3194.292 1888.664, 3231.360 1895.696 C 3241.933 1897.701, 3258.664 1896.967, 3268.829 1894.051 C 3294.458 1886.700, 3315.437 1866.836, 3324.088 1841.729 C 3339.779 1796.193, 3313.247 1746.955, 3266.590 1735.023 C 3255.817 1732.268, 3236.664 1732.287, 3226 1735.063 M 1414.945 2576.885 C 1391.571 2584.365, 1377.209 2606.265, 1380.736 2629.048 C 1383.817 2648.953, 1400.472 2665.580, 1420.680 2668.925 C 1425.699 2669.755, 1563.009 2669.980, 1940.500 2669.777 L 2453.500 2669.500 2459.419 2667.246 C 2472.188 2662.383, 2482.827 2652.809, 2488.299 2641.259 C 2491.369 2634.776, 2491.500 2633.990, 2491.500 2622 C 2491.500 2609.841, 2491.408 2609.312, 2488.135 2602.617 C 2484.186 2594.538, 2474.994 2584.853, 2467.412 2580.783 C 2455.726 2574.510, 2500.739 2574.995, 1935.540 2575.054 C 1444.806 2575.105, 1420.238 2575.191, 1414.945 2576.885" stroke="none" fill="#000000" fill-rule="evenodd"/>
</svg>