<?xml version="1.0" encoding="UTF-8"?>
<svg id="Ebene_2" data-name="Ebene 2" xmlns="http://www.w3.org/2000/svg" viewBox="0 0 223.57 168.54">
  <g id="Ebene_1-2" data-name="Ebene 1">
    <g>
      <path d="M197.45,61.82l10.76,13.9c.29,7.51-2.62,20.88-19.36,39.69-13.73-18.89-14.38-32.2-12.84-39.64l13.1-13.95-20.39-34.79-24.26,34.79,11.55,13.95c.66,6.97-1.17,19.09-14.41,36.13-16.96-22.76-18.51-38.99-17.1-48.25l15.8-18.05L111.79,0l-28.5,45.6,15.8,18.05c1.41,9.25-.15,25.48-17.1,48.25-13.24-17.03-15.07-29.15-14.41-36.13l11.55-13.95-24.26-34.79-20.39,34.79,13.1,13.95c1.53,7.45.88,20.75-12.84,39.64-16.74-18.81-19.65-32.18-19.36-39.69l10.76-13.9L0,27.03l4.56,41.72,2,18.34,4.39,40.21h0s2.01,18.38,2.01,18.38h197.65l2.01-18.38h0s4.39-40.21,4.39-40.21l2-18.34,4.56-41.72-26.12,34.79Z"/>
      <rect x="13.63" y="152.89" width="197.69" height="15.66"/>
    </g>
  </g>
</svg>