<?xml version="1.0" encoding="UTF-8"?>
<svg id="Ebene_2" data-name="Ebene 2" xmlns="http://www.w3.org/2000/svg" viewBox="0 0 293.47 197.17">
  <g id="Ebene_1-2" data-name="Ebene 1">
    <g>
      <path d="M97.36,15.95c3.19,1.73,3.99,1.73,7.31,0,4.92-2.79,5.84-10.77,1.33-13.82-1.59-1.2-3.85-2.13-5.05-2.13s-3.45.93-5.05,2.13c-4.52,3.05-3.59,11.02,1.46,13.82Z"/>
      <path d="M126.99,81.73c-.4,12.89-1.59,26.44-2.79,31.76-1.59,7.44-1.73,9.57-.4,11.57.93,1.19,4.52,5.71,7.84,9.97,3.32,4.38,8.1,11.56,10.5,16.21l4.39,8.37,5.18-9.44c2.79-5.32,8.37-13.69,12.36-18.87l7.31-9.3v-10.37c0-34.69-13.95-63.93-39.2-81.73-10.23-7.17-17.28-10.9-16.21-8.5,10.63,24.45,11.96,31.89,11.03,60.33Z"/>
      <path d="M113.3,172.5l28.84.26v-3.19c0-9.57-19.53-38.81-33.49-50.24-19.67-16.08-47.71-24.19-66.31-19.14-7.31,1.99-12.62,5.59-19.67,13.69-5.85,6.52-6.91,9.17-3.06,7.71,12.36-4.79,26.05-3.46,36.55,3.46,10.23,6.77,21.26,23.52,26.18,39.73l2.13,7.31,28.84.4Z"/>
      <path d="M261.35,105.39c-10.23-6.78-22.99-8.51-38.8-5.05-23.12,5.05-45.71,21.93-60.87,45.32-4.92,7.44-11.56,22.86-11.56,26.44,0,.4,13.03.66,28.97.66h29.1l1.6-5.72c.93-3.06,3.99-10.37,6.77-16.35,11.96-24.85,31.1-36.28,51.16-30.57,4.12,1.33,7.84,1.99,8.11,1.73,1.33-1.33-8.64-12.49-14.49-16.48Z"/>
      <path d="M1.27,130.1c-2.26,4.26-1.46,7.97,1.99,10.24,6.91,4.52,14.75-4.12,9.3-10.1-3.06-3.46-9.43-3.46-11.3-.14Z"/>
      <path d="M291.65,130.24c-3.06-3.46-9.43-3.46-11.3-.14-2.26,4.26-1.46,7.97,1.99,10.24,6.91,4.52,14.75-4.12,9.3-10.1Z"/>
      <rect x="83.76" y="181.04" width="125.94" height="15.66" transform="translate(-1.42 1.11) rotate(-.43)"/>
    </g>
  </g>
</svg>