<?xml version="1.0" encoding="UTF-8"?>
<svg id="Ebene_2" data-name="Ebene 2" xmlns="http://www.w3.org/2000/svg" viewBox="0 0 223.57 168.54">
  <g id="Ebene_1-2" data-name="Ebene 1">
    <g>
      <g>
        <polygon points="210.61 145.68 12.96 145.68 10.95 127.3 212.62 127.3 210.61 145.68"/>
        <g>
          <polygon points="140.29 45.6 111.79 78.16 83.28 45.6 111.79 0 140.29 45.6"/>
          <path d="M156.29,129.05c-46.93-48.66-28.72-74.48-28.72-74.48h-31.56s18.21,25.82-28.72,74.48h89Z"/>
        </g>
        <g>
          <g>
            <g>
              <polygon points="79.11 61.82 58.19 87.09 34.47 61.82 54.85 27.03 79.11 61.82"/>
              <path d="M95.92,127.3c-39.55-38.47-26.36-58.55-26.36-58.55h-24.77s15.42,20.08-19.85,58.55h70.98Z"/>
            </g>
            <g>
              <path d="M16.94,68.75s-1.4,2.33-1.58,6.98l10.76-13.9L0,27.03l4.56,41.72h12.38Z"/>
              <path d="M15.36,75.72l-8.8,11.37,4.39,40.21h35.49c-27.2-25.14-31.43-42.57-31.08-51.57Z"/>
              <path d="M4.56,68.75l2,18.34,8.8-11.37c.18-4.65,1.58-6.98,1.58-6.98H4.56Z"/>
            </g>
          </g>
          <g>
            <g>
              <polygon points="144.46 61.82 165.38 87.09 189.11 61.82 168.72 27.03 144.46 61.82"/>
              <path d="M127.65,127.3c39.55-38.47,26.36-58.55,26.36-58.55h24.77s-15.42,20.08,19.85,58.55h-70.98Z"/>
            </g>
            <g>
              <path d="M206.63,68.75s1.4,2.33,1.58,6.98l-10.76-13.9,26.12-34.79-4.56,41.72h-12.38Z"/>
              <path d="M208.21,75.72l8.8,11.37-4.39,40.21h-35.49c27.2-25.14,31.43-42.57,31.08-51.57Z"/>
              <path d="M219.01,68.75l-2,18.34-8.8-11.37c-.18-4.65-1.58-6.98-1.58-6.98h12.38Z"/>
            </g>
          </g>
        </g>
      </g>
      <rect x="13.63" y="152.88" width="197.69" height="15.66"/>
    </g>
  </g>
</svg>