<?xml version="1.0" encoding="UTF-8"?>
<svg id="Ebene_2" data-name="Ebene 2" xmlns="http://www.w3.org/2000/svg" viewBox="0 0 205.57 147.61">
  <g id="Ebene_1-2" data-name="Ebene 1">
    <path d="M205.57,62.1l-2.91,62.03c0,.14-.07.29-.17.38-.31-.05-.62-.07-.93-.07H4.01c-.31,0-.62.02-.93.07-.1-.1-.17-.24-.17-.38L0,62.1c-.05-.86,1.22-1,1.36-.14,5.02,27.63,14.66,45.57,26.56,45.57,13.78,0,24.96-54.86,24.96-71.56,0,32.89,11.15,71.56,24.96,71.56S102.77,70.51,102.77,0c0,70.51,11.18,107.53,24.96,107.53s24.96-38.67,24.96-71.56c0,16.69,11.18,71.56,24.96,71.56,11.89,0,21.54-17.94,26.56-45.57.14-.86,1.41-.72,1.36.14Z"/>
    <rect x="3.94" y="131.95" width="197.69" height="15.66"/>
  </g>
</svg>